<?xml version="1.0" encoding="UTF-8" standalone="no"?>
<svg
   xmlns:dc="http://purl.org/dc/elements/1.1/"
   xmlns:cc="http://creativecommons.org/ns#"
   xmlns:rdf="http://www.w3.org/1999/02/22-rdf-syntax-ns#"
   xmlns:svg="http://www.w3.org/2000/svg"
   xmlns="http://www.w3.org/2000/svg"
   xmlns:xlink="http://www.w3.org/1999/xlink"
   xmlns:sodipodi="http://sodipodi.sourceforge.net/DTD/sodipodi-0.dtd"
   xmlns:inkscape="http://www.inkscape.org/namespaces/inkscape"
   id="Layer_1"
   version="1.1"
   viewBox="0 0 31.731104 28.796213"
   xml:space="preserve"
   sodipodi:docname="practice.svg"
   inkscape:version="0.92.2 5c3e80d, 2017-08-06"
   width="31.731104"
   height="28.796213"><metadata
     id="metadata9"><rdf:RDF><cc:Work
         rdf:about=""><dc:format>image/svg+xml</dc:format><dc:type
           rdf:resource="http://purl.org/dc/dcmitype/StillImage" /><dc:title></dc:title></cc:Work></rdf:RDF></metadata><defs
     id="defs7"><clipPath
       id="SVGID_2_"><use
         height="100%"
         width="100%"
         y="0"
         x="0"
         style="overflow:visible"
         xlink:href="#SVGID_1_"
         overflow="visible"
         id="use5" /></clipPath><clipPath
       id="clipPath896"><use
         height="100%"
         width="100%"
         y="0"
         x="0"
         style="overflow:visible"
         xlink:href="#SVGID_1_"
         overflow="visible"
         id="use894" /></clipPath><clipPath
       id="clipPath900"><use
         height="100%"
         width="100%"
         y="0"
         x="0"
         style="overflow:visible"
         xlink:href="#SVGID_1_"
         overflow="visible"
         id="use898" /></clipPath><clipPath
       id="clipPath904"><use
         height="100%"
         width="100%"
         y="0"
         x="0"
         style="overflow:visible"
         xlink:href="#SVGID_1_"
         overflow="visible"
         id="use902" /></clipPath><clipPath
       id="clipPath908"><use
         height="100%"
         width="100%"
         y="0"
         x="0"
         style="overflow:visible"
         xlink:href="#SVGID_1_"
         overflow="visible"
         id="use906" /></clipPath><clipPath
       id="clipPath912"><use
         height="100%"
         width="100%"
         y="0"
         x="0"
         style="overflow:visible"
         xlink:href="#SVGID_1_"
         overflow="visible"
         id="use910" /></clipPath><clipPath
       id="clipPath916"><use
         height="100%"
         width="100%"
         y="0"
         x="0"
         style="overflow:visible"
         xlink:href="#SVGID_1_"
         overflow="visible"
         id="use914" /></clipPath><clipPath
       id="clipPath920"><use
         height="100%"
         width="100%"
         y="0"
         x="0"
         style="overflow:visible"
         xlink:href="#SVGID_1_"
         overflow="visible"
         id="use918" /></clipPath><clipPath
       id="clipPath924"><use
         height="100%"
         width="100%"
         y="0"
         x="0"
         style="overflow:visible"
         xlink:href="#SVGID_1_"
         overflow="visible"
         id="use922" /></clipPath><clipPath
       id="clipPath928"><use
         height="100%"
         width="100%"
         y="0"
         x="0"
         style="overflow:visible"
         xlink:href="#SVGID_1_"
         overflow="visible"
         id="use926" /></clipPath><clipPath
       id="clipPath932"><use
         height="100%"
         width="100%"
         y="0"
         x="0"
         style="overflow:visible"
         xlink:href="#SVGID_1_"
         overflow="visible"
         id="use930" /></clipPath><clipPath
       id="clipPath936"><use
         height="100%"
         width="100%"
         y="0"
         x="0"
         style="overflow:visible"
         xlink:href="#SVGID_1_"
         overflow="visible"
         id="use934" /></clipPath><clipPath
       id="clipPath940"><use
         height="100%"
         width="100%"
         y="0"
         x="0"
         style="overflow:visible"
         xlink:href="#SVGID_1_"
         overflow="visible"
         id="use938" /></clipPath><clipPath
       id="clipPath944"><use
         height="100%"
         width="100%"
         y="0"
         x="0"
         style="overflow:visible"
         xlink:href="#SVGID_1_"
         overflow="visible"
         id="use942" /></clipPath><clipPath
       id="clipPath948"><use
         height="100%"
         width="100%"
         y="0"
         x="0"
         style="overflow:visible"
         xlink:href="#SVGID_1_"
         overflow="visible"
         id="use946" /></clipPath><clipPath
       id="clipPath952"><use
         height="100%"
         width="100%"
         y="0"
         x="0"
         style="overflow:visible"
         xlink:href="#SVGID_1_"
         overflow="visible"
         id="use950" /></clipPath><clipPath
       id="clipPath956"><use
         height="100%"
         width="100%"
         y="0"
         x="0"
         style="overflow:visible"
         xlink:href="#SVGID_1_"
         overflow="visible"
         id="use954" /></clipPath><clipPath
       id="clipPath960"><use
         height="100%"
         width="100%"
         y="0"
         x="0"
         style="overflow:visible"
         xlink:href="#SVGID_1_"
         overflow="visible"
         id="use958" /></clipPath><clipPath
       id="clipPath964"><use
         height="100%"
         width="100%"
         y="0"
         x="0"
         style="overflow:visible"
         xlink:href="#SVGID_1_"
         overflow="visible"
         id="use962" /></clipPath><clipPath
       id="clipPath968"><use
         height="100%"
         width="100%"
         y="0"
         x="0"
         style="overflow:visible"
         xlink:href="#SVGID_1_"
         overflow="visible"
         id="use966" /></clipPath><clipPath
       id="clipPath972"><use
         height="100%"
         width="100%"
         y="0"
         x="0"
         style="overflow:visible"
         xlink:href="#SVGID_1_"
         overflow="visible"
         id="use970" /></clipPath><clipPath
       id="clipPath976"><use
         height="100%"
         width="100%"
         y="0"
         x="0"
         style="overflow:visible"
         xlink:href="#SVGID_1_"
         overflow="visible"
         id="use974" /></clipPath><clipPath
       id="clipPath980"><use
         height="100%"
         width="100%"
         y="0"
         x="0"
         style="overflow:visible"
         xlink:href="#SVGID_1_"
         overflow="visible"
         id="use978" /></clipPath><clipPath
       id="clipPath984"><use
         height="100%"
         width="100%"
         y="0"
         x="0"
         style="overflow:visible"
         xlink:href="#SVGID_1_"
         overflow="visible"
         id="use982" /></clipPath><clipPath
       id="clipPath988"><use
         height="100%"
         width="100%"
         y="0"
         x="0"
         style="overflow:visible"
         xlink:href="#SVGID_1_"
         overflow="visible"
         id="use986" /></clipPath><clipPath
       id="clipPath992"><use
         height="100%"
         width="100%"
         y="0"
         x="0"
         style="overflow:visible"
         xlink:href="#SVGID_1_"
         overflow="visible"
         id="use990" /></clipPath><clipPath
       id="clipPath996"><use
         height="100%"
         width="100%"
         y="0"
         x="0"
         style="overflow:visible"
         xlink:href="#SVGID_1_"
         overflow="visible"
         id="use994" /></clipPath><clipPath
       id="clipPath1000"><use
         height="100%"
         width="100%"
         y="0"
         x="0"
         style="overflow:visible"
         xlink:href="#SVGID_1_"
         overflow="visible"
         id="use998" /></clipPath><clipPath
       id="clipPath1004"><use
         height="100%"
         width="100%"
         y="0"
         x="0"
         style="overflow:visible"
         xlink:href="#SVGID_1_"
         overflow="visible"
         id="use1002" /></clipPath><clipPath
       id="clipPath1008"><use
         height="100%"
         width="100%"
         y="0"
         x="0"
         style="overflow:visible"
         xlink:href="#SVGID_1_"
         overflow="visible"
         id="use1006" /></clipPath><clipPath
       id="clipPath1012"><use
         height="100%"
         width="100%"
         y="0"
         x="0"
         style="overflow:visible"
         xlink:href="#SVGID_1_"
         overflow="visible"
         id="use1010" /></clipPath><rect
       id="SVGID_1_"
       x="15.572"
       y="23.601"
       width="114.021"
       height="54.691002" /><defs
       id="defs3"><rect
         height="54.691002"
         width="114.021"
         y="23.601"
         x="15.572"
         id="rect1085" /></defs><clipPath
       id="clipPath1018"><use
         id="use1016"
         overflow="visible"
         xlink:href="#SVGID_1_"
         style="overflow:visible"
         x="0"
         y="0"
         width="100%"
         height="100%" /></clipPath></defs><sodipodi:namedview
     pagecolor="#ffffff"
     bordercolor="#666666"
     borderopacity="1"
     objecttolerance="10"
     gridtolerance="10"
     guidetolerance="10"
     inkscape:pageopacity="0"
     inkscape:pageshadow="2"
     inkscape:window-width="1280"
     inkscape:window-height="751"
     id="namedview5"
     showgrid="false"
     inkscape:zoom="16.8125"
     inkscape:cx="10.924654"
     inkscape:cy="13.078199"
     inkscape:window-x="1680"
     inkscape:window-y="543"
     inkscape:window-maximized="1"
     inkscape:current-layer="layer2"
     inkscape:snap-bbox="true"
     fit-margin-top="0"
     fit-margin-left="0"
     fit-margin-right="0"
     fit-margin-bottom="0" /><g
     inkscape:groupmode="layer"
     id="layer1"
     inkscape:label="Pancarte"
     style="display:inline"
     transform="translate(-0.0285978,-0.7779128)" /><g
     inkscape:groupmode="layer"
     id="layer2"
     inkscape:label="Old"
     style="display:inline"
     transform="translate(-0.0285978,-0.7779128)"><path
       style="fill:none;fill-rule:evenodd;stroke:#2bb771;stroke-width:1px;stroke-linecap:butt;stroke-linejoin:miter;stroke-opacity:1"
       d="m 27.647558,20.011658 c -2.058277,-2.984302 1.888536,-5.840161 1.89198,-9.37748 0.0047,-4.8088384 -2.080816,-5.5032974 -4.612691,-5.3325585"
       id="path6597"
       inkscape:connector-curvature="0"
       sodipodi:nodetypes="csc" /><path
       style="opacity:1;vector-effect:none;fill:#000000;fill-opacity:1;fill-rule:nonzero;stroke:none;stroke-width:1.60000002;stroke-linecap:butt;stroke-linejoin:miter;stroke-miterlimit:4;stroke-dasharray:none;stroke-dashoffset:0;stroke-opacity:1"
       d="M 1.0030311,1.4342228 V 15.518207 H 25.444429 V 1.4342228 Z M 3.5317653,4.7781712 12.016131,7.746523 V 8.8917803 L 3.7224433,12.05081 V 10.749303 L 10.03103,8.3289172 3.5317653,6.0796787 Z"
       id="rect814"
       inkscape:connector-curvature="0"
       sodipodi:nodetypes="ccccccccccccc" /><rect
       style="display:inline;opacity:1;vector-effect:none;fill:none;fill-opacity:1;fill-rule:nonzero;stroke:#8fe5ba;stroke-width:1.60000002;stroke-linecap:butt;stroke-linejoin:miter;stroke-miterlimit:4;stroke-dasharray:none;stroke-dashoffset:0;stroke-opacity:1"
       id="rect814-7"
       width="24.202749"
       height="13.940294"
       x="1.0030314"
       y="1.5779128" /><g
       id="g6601"
       transform="translate(0.42247089,13.983051)"><path
         sodipodi:nodetypes="sszs"
         inkscape:connector-curvature="0"
         id="path859"
         d="m 27.330508,5.3389831 c -1.779661,0.3813559 -1.3759,4.9994739 -0.762711,6.4194919 1.207627,2.79661 5.338982,0.953389 4.703389,-1.334746 C 30.635593,8.1355932 28.904118,5.001781 27.330508,5.3389831 Z"
         style="fill:#8fe5ba;fill-opacity:1;fill-rule:evenodd;stroke:none;stroke-width:1px;stroke-linecap:butt;stroke-linejoin:miter;stroke-opacity:1" /><path
         sodipodi:nodetypes="sszs"
         inkscape:connector-curvature="0"
         id="path859-3"
         d="m 27.477029,6.4430859 c -1.007222,0.2936345 -0.483361,1.198069 -0.267943,1.538361 0.424246,0.670177 1.740785,0.048696 1.405139,-0.6569312 -0.335646,-0.7056273 -0.60083,-1.037796 -1.137196,-0.8814298 z"
         style="display:inline;fill:#2bb771;fill-opacity:1;fill-rule:evenodd;stroke:none;stroke-width:1.00000012px;stroke-linecap:butt;stroke-linejoin:miter;stroke-opacity:1" /></g><g
       id="g1192"
       transform="matrix(0.69405755,0,0,0.68027415,0.15638495,-4.7352417)"
       style="stroke-width:1.45532596"><rect
         rx="2.3995526"
         ry="2.4481711"
         y="33.598309"
         x="0.78610128"
         height="15.866095"
         width="35.742615"
         id="rect1159"
         style="opacity:1;vector-effect:none;fill:#8fe5ba;fill-opacity:1;fill-rule:nonzero;stroke:#2bb771;stroke-width:1.94043469;stroke-linecap:butt;stroke-linejoin:miter;stroke-miterlimit:4;stroke-dasharray:none;stroke-dashoffset:0;stroke-opacity:1" /><path
         transform="matrix(0.32489848,0,0,0.31294297,-4.9215717,25.617747)"
         style="fill:#20221d;stroke-width:4.56408644"
         inkscape:connector-curvature="0"
         clip-path="url(#SVGID_2_)"
         d="m 43.614,63.057 c 0,0 -0.648,0 -0.648,0.647 v 5.624 c 0,0 0,0.648 0.648,0.648 h 57.662 c 0,0 0.648,0 0.648,-0.648 v -5.624 c 0,0 0,-0.647 -0.648,-0.647 z"
         id="path10" /><path
         transform="matrix(0.32489848,0,0,0.31294297,-4.9215717,25.617747)"
         style="fill:#20221d;stroke-width:4.56408644"
         inkscape:connector-curvature="0"
         clip-path="url(#SVGID_2_)"
         d="m 106.031,63.057 c 0,0 -0.648,0 -0.648,0.647 v 5.624 c 0,0 0,0.648 0.648,0.648 h 14.85 c 0,0 0.648,0 0.648,-0.648 v -5.624 c 0,0 0,-0.647 -0.648,-0.647 z"
         id="path12" /><path
         transform="matrix(0.32489848,0,0,0.31294297,-4.9215717,25.617747)"
         style="fill:#20221d;stroke-width:4.56408644"
         inkscape:connector-curvature="0"
         clip-path="url(#SVGID_2_)"
         d="m 24.146,63.057 c 0,0 -0.648,0 -0.648,0.647 v 5.624 c 0,0 0,0.648 0.648,0.648 h 14.85 c 0,0 0.648,0 0.648,-0.648 v -5.624 c 0,0 0,-0.647 -0.648,-0.647 z"
         id="path14" /><path
         transform="matrix(0.32489848,0,0,0.31294297,-4.9215717,25.617747)"
         style="fill:#20221d;stroke-width:4.56408644"
         inkscape:connector-curvature="0"
         clip-path="url(#SVGID_2_)"
         d="m 54.132,52.677 c 0,0 -0.647,0 -0.647,0.647 v 5.624 c 0,0 0,0.648 0.647,0.648 h 5.624 c 0,0 0.648,0 0.648,-0.648 v -5.624 c 0,0 0,-0.647 -0.648,-0.647 z"
         id="path16" /><path
         transform="matrix(0.32489848,0,0,0.31294297,-4.9215717,25.617747)"
         style="fill:#20221d;stroke-width:4.56408644"
         inkscape:connector-curvature="0"
         clip-path="url(#SVGID_2_)"
         d="m 43.752,52.677 c 0,0 -0.648,0 -0.648,0.647 v 5.624 c 0,0 0,0.648 0.648,0.648 h 5.624 c 0,0 0.647,0 0.647,-0.648 v -5.624 c 0,0 0,-0.647 -0.647,-0.647 z"
         id="path18" /><path
         transform="matrix(0.32489848,0,0,0.31294297,-4.9215717,25.617747)"
         style="fill:#20221d;stroke-width:4.56408644"
         inkscape:connector-curvature="0"
         clip-path="url(#SVGID_2_)"
         d="m 24.146,52.677 c 0,0 -0.648,0 -0.648,0.647 v 5.624 c 0,0 0,0.648 0.648,0.648 h 14.85 c 0,0 0.648,0 0.648,-0.648 v -5.624 c 0,0 0,-0.647 -0.648,-0.647 z"
         id="path20" /><path
         transform="matrix(0.32489848,0,0,0.31294297,-4.9215717,25.617747)"
         style="fill:#20221d;stroke-width:4.56408644"
         inkscape:connector-curvature="0"
         clip-path="url(#SVGID_2_)"
         d="m 64.512,52.677 c 0,0 -0.648,0 -0.648,0.647 v 5.624 c 0,0 0,0.648 0.648,0.648 h 5.624 c 0,0 0.647,0 0.647,-0.648 v -5.624 c 0,0 0,-0.647 -0.647,-0.647 z"
         id="path22" /><path
         transform="matrix(0.32489848,0,0,0.31294297,-4.9215717,25.617747)"
         style="fill:#20221d;stroke-width:4.56408644"
         inkscape:connector-curvature="0"
         clip-path="url(#SVGID_2_)"
         d="m 74.892,52.677 c 0,0 -0.647,0 -0.647,0.647 v 5.624 c 0,0 0,0.648 0.647,0.648 h 5.624 c 0,0 0.648,0 0.648,-0.648 v -5.624 c 0,0 0,-0.647 -0.648,-0.647 z"
         id="path24" /><path
         transform="matrix(0.32489848,0,0,0.31294297,-4.9215717,25.617747)"
         style="fill:#20221d;stroke-width:4.56408644"
         inkscape:connector-curvature="0"
         clip-path="url(#SVGID_2_)"
         d="m 85.271,52.677 c 0,0 -0.648,0 -0.648,0.647 v 5.624 c 0,0 0,0.648 0.648,0.648 h 5.624 c 0,0 0.647,0 0.647,-0.648 v -5.624 c 0,0 0,-0.647 -0.647,-0.647 z"
         id="path26" /><path
         transform="matrix(0.32489848,0,0,0.31294297,-4.9215717,25.617747)"
         style="fill:#20221d;stroke-width:4.56408644"
         inkscape:connector-curvature="0"
         clip-path="url(#SVGID_2_)"
         d="m 95.651,52.677 c 0,0 -0.647,0 -0.647,0.647 v 5.624 c 0,0 0,0.648 0.647,0.648 h 5.624 c 0,0 0.648,0 0.648,-0.648 v -5.624 c 0,0 0,-0.647 -0.648,-0.647 z"
         id="path28" /><path
         transform="matrix(0.32489848,0,0,0.31294297,-4.9215717,25.617747)"
         style="fill:#20221d;stroke-width:4.56408644"
         inkscape:connector-curvature="0"
         clip-path="url(#SVGID_2_)"
         d="m 106.031,52.677 c 0,0 -0.648,0 -0.648,0.647 v 5.624 c 0,0 0,0.648 0.648,0.648 h 14.989 c 0,0 0.647,0 0.647,-0.648 v -5.624 c 0,0 0,-0.647 -0.647,-0.647 z"
         id="path30" /><path
         transform="matrix(0.32489848,0,0,0.31294297,-4.9215717,25.617747)"
         style="fill:#20221d;stroke-width:4.56408644"
         inkscape:connector-curvature="0"
         clip-path="url(#SVGID_2_)"
         d="m 49.519,42.297 c 0,0 -0.648,0 -0.648,0.647 v 5.624 c 0,0 0,0.648 0.648,0.648 h 5.624 c 0,0 0.648,0 0.648,-0.648 v -5.624 c 0,0 0,-0.647 -0.648,-0.647 z"
         id="path32" /><path
         transform="matrix(0.32489848,0,0,0.31294297,-4.9215717,25.617747)"
         style="fill:#20221d;stroke-width:4.56408644"
         inkscape:connector-curvature="0"
         clip-path="url(#SVGID_2_)"
         d="m 39.139,42.297 c 0,0 -0.648,0 -0.648,0.647 v 5.624 c 0,0 0,0.648 0.648,0.648 h 5.624 c 0,0 0.648,0 0.648,-0.648 v -5.624 c 0,0 0,-0.647 -0.648,-0.647 z"
         id="path34" /><path
         transform="matrix(0.32489848,0,0,0.31294297,-4.9215717,25.617747)"
         style="fill:#20221d;stroke-width:4.56408644"
         inkscape:connector-curvature="0"
         clip-path="url(#SVGID_2_)"
         d="m 24.146,42.297 c 0,0 -0.648,0 -0.648,0.647 v 5.624 c 0,0 0,0.648 0.648,0.648 h 10.237 c 0,0 0.648,0 0.648,-0.648 v -5.624 c 0,0 0,-0.647 -0.648,-0.647 z"
         id="path36" /><path
         transform="matrix(0.32489848,0,0,0.31294297,-4.9215717,25.617747)"
         style="fill:#20221d;stroke-width:4.56408644"
         inkscape:connector-curvature="0"
         clip-path="url(#SVGID_2_)"
         d="m 59.898,42.297 c 0,0 -0.648,0 -0.648,0.647 v 5.624 c 0,0 0,0.648 0.648,0.648 h 5.624 c 0,0 0.648,0 0.648,-0.648 v -5.624 c 0,0 0,-0.647 -0.648,-0.647 z"
         id="path38" /><path
         transform="matrix(0.32489848,0,0,0.31294297,-4.9215717,25.617747)"
         style="fill:#20221d;stroke-width:4.56408644"
         inkscape:connector-curvature="0"
         clip-path="url(#SVGID_2_)"
         d="m 70.278,42.297 c 0,0 -0.647,0 -0.647,0.647 v 5.624 c 0,0 0,0.648 0.647,0.648 h 5.624 c 0,0 0.648,0 0.648,-0.648 v -5.624 c 0,0 0,-0.647 -0.648,-0.647 z"
         id="path40" /><path
         transform="matrix(0.32489848,0,0,0.31294297,-4.9215717,25.617747)"
         style="fill:#20221d;stroke-width:4.56408644"
         inkscape:connector-curvature="0"
         clip-path="url(#SVGID_2_)"
         d="m 80.658,42.297 c 0,0 -0.648,0 -0.648,0.647 v 5.624 c 0,0 0,0.648 0.648,0.648 h 5.624 c 0,0 0.647,0 0.647,-0.648 v -5.624 c 0,0 0,-0.647 -0.647,-0.647 z"
         id="path42" /><path
         transform="matrix(0.32489848,0,0,0.31294297,-4.9215717,25.617747)"
         style="fill:#20221d;stroke-width:4.56408644"
         inkscape:connector-curvature="0"
         clip-path="url(#SVGID_2_)"
         d="m 91.038,42.297 c 0,0 -0.647,0 -0.647,0.647 v 5.624 c 0,0 0,0.648 0.647,0.648 h 5.624 c 0,0 0.648,0 0.648,-0.648 v -5.624 c 0,0 0,-0.647 -0.648,-0.647 z"
         id="path44" /><path
         transform="matrix(0.32489848,0,0,0.31294297,-4.9215717,25.617747)"
         style="fill:#20221d;stroke-width:4.56408644"
         inkscape:connector-curvature="0"
         clip-path="url(#SVGID_2_)"
         d="m 101.418,42.297 c 0,0 -0.648,0 -0.648,0.647 v 5.624 c 0,0 0,0.648 0.648,0.648 h 5.624 c 0,0 0.647,0 0.647,-0.648 v -5.624 c 0,0 0,-0.647 -0.647,-0.647 z"
         id="path46" /><path
         transform="matrix(0.32489848,0,0,0.31294297,-4.9215717,25.617747)"
         style="fill:#20221d;stroke-width:4.56408644"
         inkscape:connector-curvature="0"
         clip-path="url(#SVGID_2_)"
         d="m 111.798,42.297 c 0,0 -0.647,0 -0.647,0.647 v 5.624 c 0,0 0,0.648 0.647,0.648 h 9.222 c 0,0 0.648,0 0.648,-0.648 v -5.624 c 0,0 0,-0.647 -0.648,-0.647 z"
         id="path48" /><path
         transform="matrix(0.32489848,0,0,0.31294297,-4.9215717,25.617747)"
         style="fill:#20221d;stroke-width:4.56408644"
         inkscape:connector-curvature="0"
         clip-path="url(#SVGID_2_)"
         d="m 74.635,31.916 c 0,0 -0.647,0 -0.647,0.648 v 5.624 c 0,0 0,0.648 0.647,0.648 h 5.625 c 0,0 0.647,0 0.647,-0.648 v -5.624 c 0,0 0,-0.648 -0.647,-0.648 z"
         id="path50" /><path
         transform="matrix(0.32489848,0,0,0.31294297,-4.9215717,25.617747)"
         style="fill:#20221d;stroke-width:4.56408644"
         inkscape:connector-curvature="0"
         clip-path="url(#SVGID_2_)"
         d="m 64.537,31.916 c 0,0 -0.647,0 -0.647,0.648 v 5.624 c 0,0 0,0.648 0.647,0.648 h 5.625 c 0,0 0.647,0 0.647,-0.648 v -5.624 c 0,0 0,-0.648 -0.647,-0.648 z"
         id="path52" /><path
         transform="matrix(0.32489848,0,0,0.31294297,-4.9215717,25.617747)"
         style="fill:#20221d;stroke-width:4.56408644"
         inkscape:connector-curvature="0"
         clip-path="url(#SVGID_2_)"
         d="m 54.439,31.916 c 0,0 -0.648,0 -0.648,0.648 v 5.624 c 0,0 0,0.648 0.648,0.648 h 5.624 c 0,0 0.647,0 0.647,-0.648 v -5.624 c 0,0 0,-0.648 -0.647,-0.648 z"
         id="path54" /><path
         transform="matrix(0.32489848,0,0,0.31294297,-4.9215717,25.617747)"
         style="fill:#20221d;stroke-width:4.56408644"
         inkscape:connector-curvature="0"
         clip-path="url(#SVGID_2_)"
         d="m 44.342,31.916 c 0,0 -0.648,0 -0.648,0.648 v 5.624 c 0,0 0,0.648 0.648,0.648 h 5.624 c 0,0 0.647,0 0.647,-0.648 v -5.624 c 0,0 0,-0.648 -0.647,-0.648 z"
         id="path56" /><path
         transform="matrix(0.32489848,0,0,0.31294297,-4.9215717,25.617747)"
         style="fill:#20221d;stroke-width:4.56408644"
         inkscape:connector-curvature="0"
         clip-path="url(#SVGID_2_)"
         d="m 34.244,31.916 c 0,0 -0.648,0 -0.648,0.648 v 5.624 c 0,0 0,0.648 0.648,0.648 h 5.624 c 0,0 0.648,0 0.648,-0.648 v -5.624 c 0,0 0,-0.648 -0.648,-0.648 z"
         id="path58" /><path
         transform="matrix(0.32489848,0,0,0.31294297,-4.9215717,25.617747)"
         style="fill:#20221d;stroke-width:4.56408644"
         inkscape:connector-curvature="0"
         clip-path="url(#SVGID_2_)"
         d="m 24.146,31.916 c 0,0 -0.648,0 -0.648,0.648 v 5.624 c 0,0 0,0.648 0.648,0.648 h 5.624 c 0,0 0.648,0 0.648,-0.648 v -5.624 c 0,0 0,-0.648 -0.648,-0.648 z"
         id="path60" /><path
         transform="matrix(0.32489848,0,0,0.31294297,-4.9215717,25.617747)"
         style="fill:#20221d;stroke-width:4.56408644"
         inkscape:connector-curvature="0"
         clip-path="url(#SVGID_2_)"
         d="m 84.733,31.916 c 0,0 -0.647,0 -0.647,0.648 v 5.624 c 0,0 0,0.648 0.647,0.648 h 5.624 c 0,0 0.648,0 0.648,-0.648 v -5.624 c 0,0 0,-0.648 -0.648,-0.648 z"
         id="path62" /><path
         transform="matrix(0.32489848,0,0,0.31294297,-4.9215717,25.617747)"
         style="fill:#20221d;stroke-width:4.56408644"
         inkscape:connector-curvature="0"
         clip-path="url(#SVGID_2_)"
         d="m 94.832,31.916 c 0,0 -0.648,0 -0.648,0.648 v 5.624 c 0,0 0,0.648 0.648,0.648 h 5.623 c 0,0 0.648,0 0.648,-0.648 v -5.624 c 0,0 0,-0.648 -0.648,-0.648 z"
         id="path64" /><path
         transform="matrix(0.32489848,0,0,0.31294297,-4.9215717,25.617747)"
         style="fill:#20221d;stroke-width:4.56408644"
         inkscape:connector-curvature="0"
         clip-path="url(#SVGID_2_)"
         d="m 104.93,31.916 c 0,0 -0.648,0 -0.648,0.648 v 5.624 c 0,0 0,0.648 0.648,0.648 h 5.623 c 0,0 0.648,0 0.648,-0.648 v -5.624 c 0,0 0,-0.648 -0.648,-0.648 z"
         id="path66" /><path
         transform="matrix(0.32489848,0,0,0.31294297,-4.9215717,25.617747)"
         style="fill:#20221d;stroke-width:4.56408644"
         inkscape:connector-curvature="0"
         clip-path="url(#SVGID_2_)"
         d="m 115.027,31.916 c 0,0 -0.648,0 -0.648,0.648 v 5.624 c 0,0 0,0.648 0.648,0.648 h 5.624 c 0,0 0.647,0 0.647,-0.648 v -5.624 c 0,0 0,-0.648 -0.647,-0.648 z"
         id="path68" /></g></g></svg>